<svg xmlns="http://www.w3.org/2000/svg" xmlns:xlink="http://www.w3.org/1999/xlink" width="500" zoomAndPan="magnify" viewBox="0 0 375 112.499997" height="150" preserveAspectRatio="xMidYMid meet" version="1.0"><defs><g/><clipPath id="af1d57a87f"><path d="M 0.828125 0 L 374.167969 0 L 374.167969 112.003906 L 0.828125 112.003906 Z M 0.828125 0 " clip-rule="nonzero"/></clipPath></defs><g clip-path="url(#af1d57a87f)"><path fill="#ffffff" d="M 0.828125 0 L 374.171875 0 L 374.171875 112.003906 L 0.828125 112.003906 Z M 0.828125 0 " fill-opacity="1" fill-rule="nonzero"/><path fill="#000000" d="M 0.828125 0 L 374.171875 0 L 374.171875 112.003906 L 0.828125 112.003906 Z M 0.828125 0 " fill-opacity="1" fill-rule="nonzero"/></g><g fill="#ffffff" fill-opacity="1"><g transform="translate(71.364823, 71.982703)"><g><path d="M 7.734375 0 L 7.734375 -44.84375 L 24.421875 -44.84375 C 27.679688 -44.84375 30.695312 -44.023438 33.46875 -42.390625 C 36.238281 -40.765625 38.441406 -38.566406 40.078125 -35.796875 C 41.710938 -33.023438 42.53125 -30.003906 42.53125 -26.734375 L 42.53125 -18.109375 C 42.53125 -14.835938 41.710938 -11.816406 40.078125 -9.046875 C 38.441406 -6.273438 36.238281 -4.070312 33.46875 -2.4375 C 30.695312 -0.8125 27.679688 0 24.421875 0 Z M 7.734375 0 "/></g></g></g><g fill="#ffffff" fill-opacity="1"><g transform="translate(119.041845, 71.982703)"><g><path d="M 6.578125 0 L 6.578125 -44.84375 L 8.953125 -44.84375 L 8.953125 -32.15625 C 13.378906 -32.15625 17.566406 -31.304688 21.515625 -29.609375 C 25.472656 -27.910156 28.929688 -25.546875 31.890625 -22.515625 C 34.859375 -19.492188 37.140625 -16.023438 38.734375 -12.109375 L 38.734375 -44.84375 L 41.109375 -44.84375 L 41.109375 0 L 38.734375 0 C 38.734375 -5.363281 37.398438 -10.332031 34.734375 -14.90625 C 32.066406 -19.488281 28.445312 -23.109375 23.875 -25.765625 C 19.300781 -28.429688 14.328125 -29.765625 8.953125 -29.765625 L 8.953125 0 Z M 6.578125 0 "/></g></g></g><g fill="#ffffff" fill-opacity="1"><g transform="translate(166.718867, 71.982703)"><g><path d="M 7.734375 -44.84375 L 40.40625 -44.84375 L 40.40625 -33.5 L 19.453125 -33.5 L 19.453125 -27.84375 L 36.859375 -27.84375 L 36.859375 -17.078125 L 19.453125 -17.078125 L 19.453125 -11.34375 L 40.40625 -11.34375 L 40.40625 0 L 7.734375 0 Z M 7.734375 -44.84375 "/></g></g></g><g fill="#ffffff" fill-opacity="1"><g transform="translate(214.395889, 71.982703)"><g><path d="M 2.703125 -44.90625 L 44.984375 -44.90625 L 23.84375 0.90625 Z M 23.84375 -4.765625 L 41.296875 -42.53125 L 6.4375 -42.53125 Z M 23.84375 -4.765625 "/></g></g></g><g fill="#ffffff" fill-opacity="1"><g transform="translate(262.072912, 71.982703)"><g><path d="M 7.734375 0 L 7.734375 -44.84375 L 24.421875 -44.84375 C 27.679688 -44.84375 30.695312 -44.023438 33.46875 -42.390625 C 36.238281 -40.765625 38.441406 -38.566406 40.078125 -35.796875 C 41.710938 -33.023438 42.53125 -30.003906 42.53125 -26.734375 L 42.53125 -18.109375 C 42.53125 -14.835938 41.710938 -11.816406 40.078125 -9.046875 C 38.441406 -6.273438 36.238281 -4.070312 33.46875 -2.4375 C 30.695312 -0.8125 27.679688 0 24.421875 0 Z M 7.734375 0 "/></g></g></g><g fill="#ffffff" fill-opacity="1"><g transform="translate(137.454438, 98.789098)"><g><path d="M 6.328125 -0.921875 C 6.992188 -0.921875 7.628906 -1.050781 8.234375 -1.3125 C 8.847656 -1.582031 9.363281 -1.945312 9.78125 -2.40625 L 10.546875 -1.609375 C 10.015625 -1.054688 9.375 -0.617188 8.625 -0.296875 C 7.882812 0.015625 7.109375 0.171875 6.296875 0.171875 C 5.515625 0.171875 4.78125 0.0234375 4.09375 -0.265625 C 3.40625 -0.554688 2.804688 -0.953125 2.296875 -1.453125 C 1.796875 -1.953125 1.398438 -2.539062 1.109375 -3.21875 C 0.828125 -3.90625 0.6875 -4.640625 0.6875 -5.421875 C 0.6875 -6.191406 0.828125 -6.914062 1.109375 -7.59375 C 1.398438 -8.28125 1.796875 -8.875 2.296875 -9.375 C 2.804688 -9.875 3.40625 -10.269531 4.09375 -10.5625 C 4.78125 -10.851562 5.515625 -11 6.296875 -11 C 7.128906 -11 7.921875 -10.84375 8.671875 -10.53125 C 9.421875 -10.21875 10.054688 -9.78125 10.578125 -9.21875 L 9.796875 -8.390625 C 9.367188 -8.859375 8.84375 -9.226562 8.21875 -9.5 C 7.59375 -9.769531 6.953125 -9.90625 6.296875 -9.90625 C 5.679688 -9.90625 5.101562 -9.785156 4.5625 -9.546875 C 4.019531 -9.316406 3.550781 -9.003906 3.15625 -8.609375 C 2.757812 -8.210938 2.445312 -7.738281 2.21875 -7.1875 C 2 -6.632812 1.890625 -6.046875 1.890625 -5.421875 C 1.890625 -4.785156 2 -4.191406 2.21875 -3.640625 C 2.445312 -3.085938 2.757812 -2.613281 3.15625 -2.21875 C 3.5625 -1.820312 4.035156 -1.503906 4.578125 -1.265625 C 5.117188 -1.035156 5.703125 -0.921875 6.328125 -0.921875 Z M 6.328125 -0.921875 "/></g></g></g><g fill="#ffffff" fill-opacity="1"><g transform="translate(148.620337, 98.789098)"><g><path d="M 11.828125 -5.421875 C 11.828125 -4.640625 11.679688 -3.90625 11.390625 -3.21875 C 11.109375 -2.539062 10.71875 -1.953125 10.21875 -1.453125 C 9.71875 -0.953125 9.125 -0.554688 8.4375 -0.265625 C 7.757812 0.0234375 7.035156 0.171875 6.265625 0.171875 C 5.492188 0.171875 4.765625 0.0234375 4.078125 -0.265625 C 3.390625 -0.554688 2.796875 -0.953125 2.296875 -1.453125 C 1.796875 -1.953125 1.398438 -2.539062 1.109375 -3.21875 C 0.828125 -3.90625 0.6875 -4.640625 0.6875 -5.421875 C 0.6875 -6.191406 0.828125 -6.914062 1.109375 -7.59375 C 1.398438 -8.28125 1.796875 -8.875 2.296875 -9.375 C 2.796875 -9.875 3.390625 -10.269531 4.078125 -10.5625 C 4.765625 -10.851562 5.492188 -11 6.265625 -11 C 7.035156 -11 7.757812 -10.851562 8.4375 -10.5625 C 9.125 -10.269531 9.71875 -9.875 10.21875 -9.375 C 10.71875 -8.875 11.109375 -8.28125 11.390625 -7.59375 C 11.679688 -6.914062 11.828125 -6.191406 11.828125 -5.421875 Z M 10.625 -5.421875 C 10.625 -6.046875 10.507812 -6.632812 10.28125 -7.1875 C 10.0625 -7.738281 9.753906 -8.210938 9.359375 -8.609375 C 8.972656 -9.003906 8.507812 -9.316406 7.96875 -9.546875 C 7.4375 -9.785156 6.867188 -9.90625 6.265625 -9.90625 C 5.648438 -9.90625 5.070312 -9.785156 4.53125 -9.546875 C 4 -9.316406 3.535156 -9.003906 3.140625 -8.609375 C 2.753906 -8.210938 2.445312 -7.738281 2.21875 -7.1875 C 2 -6.632812 1.890625 -6.046875 1.890625 -5.421875 C 1.890625 -4.785156 2 -4.191406 2.21875 -3.640625 C 2.445312 -3.097656 2.753906 -2.625 3.140625 -2.21875 C 3.535156 -1.820312 4 -1.503906 4.53125 -1.265625 C 5.070312 -1.035156 5.648438 -0.921875 6.265625 -0.921875 C 6.867188 -0.921875 7.4375 -1.035156 7.96875 -1.265625 C 8.507812 -1.503906 8.972656 -1.820312 9.359375 -2.21875 C 9.753906 -2.625 10.0625 -3.097656 10.28125 -3.640625 C 10.507812 -4.191406 10.625 -4.785156 10.625 -5.421875 Z M 10.625 -5.421875 "/></g></g></g><g fill="#ffffff" fill-opacity="1"><g transform="translate(161.131722, 98.789098)"><g><path d="M 1.1875 0 L 1.1875 -10.828125 L 4.765625 -10.828125 C 5.578125 -10.828125 6.332031 -10.691406 7.03125 -10.421875 C 7.738281 -10.148438 8.34375 -9.773438 8.84375 -9.296875 C 9.351562 -8.816406 9.75 -8.242188 10.03125 -7.578125 C 10.3125 -6.921875 10.453125 -6.203125 10.453125 -5.421875 C 10.453125 -4.628906 10.3125 -3.898438 10.03125 -3.234375 C 9.75 -2.578125 9.359375 -2.007812 8.859375 -1.53125 C 8.359375 -1.050781 7.753906 -0.675781 7.046875 -0.40625 C 6.347656 -0.132812 5.585938 0 4.765625 0 Z M 4.828125 -9.75 L 2.375 -9.75 L 2.375 -1.078125 L 4.828125 -1.078125 C 5.441406 -1.078125 6.019531 -1.1875 6.5625 -1.40625 C 7.113281 -1.632812 7.582031 -1.941406 7.96875 -2.328125 C 8.363281 -2.710938 8.675781 -3.171875 8.90625 -3.703125 C 9.132812 -4.234375 9.25 -4.804688 9.25 -5.421875 C 9.25 -6.023438 9.132812 -6.59375 8.90625 -7.125 C 8.675781 -7.65625 8.363281 -8.113281 7.96875 -8.5 C 7.582031 -8.882812 7.113281 -9.1875 6.5625 -9.40625 C 6.019531 -9.632812 5.441406 -9.75 4.828125 -9.75 Z M 4.828125 -9.75 "/></g></g></g><g fill="#ffffff" fill-opacity="1"><g transform="translate(172.266693, 98.789098)"><g><path d="M 1.1875 0 L 1.1875 -10.828125 L 8.9375 -10.828125 L 8.9375 -9.78125 L 2.375 -9.78125 L 2.375 -5.984375 L 6.671875 -5.984375 L 6.671875 -4.953125 L 2.375 -4.953125 L 2.375 -1.046875 L 9 -1.046875 L 9 0 Z M 1.1875 0 "/></g></g></g><g fill="#ffffff" fill-opacity="1"><g transform="translate(181.793281, 98.789098)"><g><path d="M 0.765625 -4.859375 L 6.15625 -4.859375 L 6.15625 -3.84375 L 0.765625 -3.84375 Z M 0.765625 -4.859375 "/></g></g></g><g fill="#ffffff" fill-opacity="1"><g transform="translate(188.706238, 98.789098)"><g><path d="M 1.1875 -10.828125 L 5.578125 -10.828125 C 6.617188 -10.828125 7.445312 -10.570312 8.0625 -10.0625 C 8.6875 -9.5625 9 -8.890625 9 -8.046875 C 9 -7.484375 8.851562 -6.992188 8.5625 -6.578125 C 8.269531 -6.171875 7.863281 -5.859375 7.34375 -5.640625 C 8 -5.453125 8.515625 -5.125 8.890625 -4.65625 C 9.265625 -4.195312 9.453125 -3.660156 9.453125 -3.046875 C 9.453125 -2.117188 9.113281 -1.378906 8.4375 -0.828125 C 7.757812 -0.273438 6.867188 0 5.765625 0 L 1.1875 0 Z M 5.515625 -9.796875 L 2.375 -9.796875 L 2.375 -6.109375 L 5.515625 -6.109375 C 6.222656 -6.109375 6.785156 -6.273438 7.203125 -6.609375 C 7.617188 -6.941406 7.828125 -7.390625 7.828125 -7.953125 C 7.828125 -8.503906 7.617188 -8.945312 7.203125 -9.28125 C 6.785156 -9.625 6.222656 -9.796875 5.515625 -9.796875 Z M 5.671875 -1.03125 C 6.453125 -1.03125 7.078125 -1.21875 7.546875 -1.59375 C 8.015625 -1.96875 8.25 -2.460938 8.25 -3.078125 C 8.25 -3.691406 8.015625 -4.1875 7.546875 -4.5625 C 7.078125 -4.9375 6.453125 -5.125 5.671875 -5.125 L 2.375 -5.125 L 2.375 -1.03125 Z M 5.671875 -1.03125 "/></g></g></g><g fill="#ffffff" fill-opacity="1"><g transform="translate(198.866905, 98.789098)"><g><path d="M 1.1875 0 L 1.1875 -10.828125 L 5.828125 -10.828125 C 6.878906 -10.828125 7.726562 -10.539062 8.375 -9.96875 C 9.03125 -9.394531 9.359375 -8.644531 9.359375 -7.71875 C 9.359375 -7.007812 9.148438 -6.394531 8.734375 -5.875 C 8.316406 -5.363281 7.753906 -5.007812 7.046875 -4.8125 L 9.484375 0 L 8.171875 0 L 5.84375 -4.65625 L 2.375 -4.65625 L 2.375 0 Z M 5.75 -9.765625 L 2.375 -9.765625 L 2.375 -5.65625 L 5.75 -5.65625 C 6.476562 -5.65625 7.0625 -5.84375 7.5 -6.21875 C 7.945312 -6.601562 8.171875 -7.101562 8.171875 -7.71875 C 8.171875 -8.332031 7.945312 -8.828125 7.5 -9.203125 C 7.0625 -9.578125 6.476562 -9.765625 5.75 -9.765625 Z M 5.75 -9.765625 "/></g></g></g><g fill="#ffffff" fill-opacity="1"><g transform="translate(208.841988, 98.789098)"><g><path d="M 1.1875 0 L 1.1875 -10.828125 L 8.9375 -10.828125 L 8.9375 -9.78125 L 2.375 -9.78125 L 2.375 -5.984375 L 6.671875 -5.984375 L 6.671875 -4.953125 L 2.375 -4.953125 L 2.375 -1.046875 L 9 -1.046875 L 9 0 Z M 1.1875 0 "/></g></g></g><g fill="#ffffff" fill-opacity="1"><g transform="translate(218.368576, 98.789098)"><g><path d="M 0.0625 0 L 4.5625 -10.828125 L 6 -10.828125 L 10.4375 0 L 9.140625 0 L 7.78125 -3.40625 L 2.671875 -3.40625 L 1.296875 0 Z M 3.09375 -4.421875 L 7.359375 -4.421875 L 5.25 -9.71875 Z M 3.09375 -4.421875 "/></g></g></g><g fill="#ffffff" fill-opacity="1"><g transform="translate(228.869482, 98.789098)"><g><path d="M 1.1875 0 L 1.1875 -10.828125 L 2.375 -10.828125 L 2.375 -5.6875 L 7.984375 -10.828125 L 9.546875 -10.828125 L 3.671875 -5.515625 L 9.671875 0 L 8 0 L 2.375 -5.203125 L 2.375 0 Z M 1.1875 0 "/></g></g></g><g fill="#ffffff" fill-opacity="1"><g transform="translate(238.411541, 98.789098)"><g><path d="M 1.1875 0 L 1.1875 -10.828125 L 8.9375 -10.828125 L 8.9375 -9.78125 L 2.375 -9.78125 L 2.375 -5.984375 L 6.671875 -5.984375 L 6.671875 -4.953125 L 2.375 -4.953125 L 2.375 -1.046875 L 9 -1.046875 L 9 0 Z M 1.1875 0 "/></g></g></g><g fill="#ffffff" fill-opacity="1"><g transform="translate(247.938129, 98.789098)"><g><path d="M 1.1875 0 L 1.1875 -10.828125 L 5.828125 -10.828125 C 6.878906 -10.828125 7.726562 -10.539062 8.375 -9.96875 C 9.03125 -9.394531 9.359375 -8.644531 9.359375 -7.71875 C 9.359375 -7.007812 9.148438 -6.394531 8.734375 -5.875 C 8.316406 -5.363281 7.753906 -5.007812 7.046875 -4.8125 L 9.484375 0 L 8.171875 0 L 5.84375 -4.65625 L 2.375 -4.65625 L 2.375 0 Z M 5.75 -9.765625 L 2.375 -9.765625 L 2.375 -5.65625 L 5.75 -5.65625 C 6.476562 -5.65625 7.0625 -5.84375 7.5 -6.21875 C 7.945312 -6.601562 8.171875 -7.101562 8.171875 -7.71875 C 8.171875 -8.332031 7.945312 -8.828125 7.5 -9.203125 C 7.0625 -9.578125 6.476562 -9.765625 5.75 -9.765625 Z M 5.75 -9.765625 "/></g></g></g></svg>